<svg width="64" height="64" viewBox="0 0 64 64" fill="none" xmlns="http://www.w3.org/2000/svg">
<path d="M0 28C0 14.8007 0 8.20101 4.10051 4.10051C8.20101 0 14.8007 0 28 0H36C49.1993 0 55.799 0 59.8995 4.10051C64 8.20101 64 14.8007 64 28V36C64 49.1993 64 55.799 59.8995 59.8995C55.799 64 49.1993 64 36 64H28C14.8007 64 8.20101 64 4.10051 59.8995C0 55.799 0 49.1993 0 36V28Z" fill="#1B1B1B"/>
<path d="M28.7376 15.5959C29.7604 15.1238 30.8734 14.8793 31.9999 14.8793C33.1264 14.8793 34.2394 15.1238 35.2622 15.5959L45.6293 20.3793C46.208 20.6466 46.6981 21.0741 47.0413 21.6113C47.3846 22.1485 47.5667 22.7728 47.5662 23.4102V27.5464H45.3424C44.6215 27.5458 43.9197 27.7789 43.3423 28.2106C42.7649 28.6423 42.3429 29.2495 42.1395 29.9413C41.9362 30.633 41.9624 31.3719 42.2143 32.0475C42.4662 32.723 42.9302 33.2988 43.5368 33.6885C40.7282 35.314 36.6765 36.4415 31.9977 36.4415C27.3211 36.4415 23.2694 35.314 20.4608 33.6862C21.0678 33.2972 21.5323 32.7218 21.7846 32.0465C22.0369 31.3711 22.0635 30.6321 21.8603 29.9404C21.6571 29.2487 21.2351 28.6415 20.6576 28.2098C20.0802 27.7782 19.3783 27.5454 18.6574 27.5464H16.4336V23.4102C16.4331 22.7728 16.6152 22.1485 16.9585 21.6113C17.3018 21.0741 17.7918 20.6466 18.3705 20.3793L28.7376 15.5959V15.5959ZM24.6548 24.2997C24.3835 24.1836 24.0772 24.1799 23.8032 24.2896C23.5292 24.3993 23.31 24.6133 23.1938 24.8846C23.0776 25.1559 23.074 25.4622 23.1837 25.7362C23.2933 26.0102 23.5074 26.2294 23.7787 26.3456L30.888 29.3922V33.1058C30.888 33.4007 31.0052 33.6835 31.2137 33.8921C31.4222 34.1006 31.705 34.2177 31.9999 34.2177C32.2948 34.2177 32.5776 34.1006 32.7861 33.8921C32.9946 33.6835 33.1118 33.4007 33.1118 33.1058V29.3922L40.2211 26.3456C40.3555 26.2881 40.4772 26.2047 40.5792 26.1001C40.6813 25.9955 40.7618 25.8719 40.8161 25.7362C40.8705 25.6006 40.8975 25.4555 40.8958 25.3094C40.894 25.1633 40.8635 25.0189 40.806 24.8846C40.7485 24.7503 40.665 24.6286 40.5605 24.5265C40.4559 24.4244 40.3323 24.3439 40.1966 24.2896C40.0609 24.2353 39.9159 24.2082 39.7698 24.21C39.6237 24.2117 39.4793 24.2422 39.345 24.2997L31.9999 27.4486L24.6548 24.2997Z" fill="white"/>
<path d="M44.2308 30.882C44.2308 30.5871 44.348 30.3043 44.5565 30.0958C44.765 29.8873 45.0478 29.7701 45.3427 29.7701H50.9021C51.197 29.7701 51.4798 29.8873 51.6883 30.0958C51.8969 30.3043 52.014 30.5871 52.014 30.882V36.4414C52.014 36.7363 51.8969 37.0191 51.6883 37.2276C51.4798 37.4362 51.197 37.5533 50.9021 37.5533C50.6072 37.5533 50.3244 37.4362 50.1159 37.2276C49.9074 37.0191 49.7902 36.7363 49.7902 36.4414V34.2621C49.1282 35.036 48.3824 35.7341 47.5665 36.3436C47.1104 36.6876 46.6376 37.0089 46.15 37.3065C42.5297 39.5191 37.5262 40.8867 31.9979 40.8867C26.4719 40.8867 21.4684 39.5191 17.8459 37.3065C17.3599 37.0102 16.8886 36.6904 16.4338 36.348C15.6181 35.7392 14.8723 35.0419 14.2101 34.2688V36.4414C14.2101 36.7363 14.0929 37.0191 13.8844 37.2276C13.6759 37.4362 13.3931 37.5533 13.0982 37.5533C12.8033 37.5533 12.5205 37.4362 12.312 37.2276C12.1035 37.0191 11.9863 36.7363 11.9863 36.4414V30.882C11.9863 30.5871 12.1035 30.3043 12.312 30.0958C12.5205 29.8873 12.8033 29.7701 13.0982 29.7701H18.6576C18.9525 29.7701 19.2353 29.8873 19.4438 30.0958C19.6523 30.3043 19.7695 30.5871 19.7695 30.882C19.7695 31.1769 19.6523 31.4597 19.4438 31.6682C19.2353 31.8768 18.9525 31.9939 18.6576 31.9939H15.2775C15.5933 32.4742 15.978 32.9479 16.4338 33.4104C16.7051 33.684 16.9987 33.953 17.3211 34.2177C17.7881 34.6024 18.3107 34.976 18.8889 35.3362L19.0067 35.4096C19.9185 35.9655 20.9459 36.4726 22.0644 36.9062C24.8797 38.0047 28.2865 38.663 31.9979 38.663C35.7116 38.663 39.1206 38.0025 41.9381 36.9062C42.9979 36.498 44.0196 35.9972 44.9914 35.4096C45.614 35.0271 46.1766 34.6291 46.677 34.2177C46.9994 33.9508 47.2952 33.6795 47.5665 33.406C48.0224 32.9457 48.4048 32.472 48.7184 31.9939H45.3427C45.0478 31.9939 44.765 31.8768 44.5565 31.6682C44.348 31.4597 44.2308 31.1769 44.2308 30.882Z" fill="white"/>
<path d="M31.9999 43.1127C26.0736 43.1127 20.5186 41.625 16.4336 39.0476V40.5776C16.4335 41.2147 16.6158 41.8385 16.9591 42.3752C17.3023 42.912 17.7921 43.3392 18.3705 43.6063L28.7376 48.3896C29.7604 48.8618 30.8734 49.1063 31.9999 49.1063C33.1264 49.1063 34.2394 48.8618 35.2622 48.3896L45.6293 43.6063C46.2077 43.3392 46.6975 42.912 47.0407 42.3752C47.384 41.8385 47.5663 41.2147 47.5662 40.5776V39.0454C43.4812 41.625 37.924 43.1127 31.9999 43.1127Z" fill="white"/>
</svg>
