<svg width="496" height="512" viewBox="0 0 496 512" fill="none" xmlns="http://www.w3.org/2000/svg">
<path d="M143.377 271.865L221.902 482.59C228.615 503.05 262.682 508.06 274.405 482.59L352.93 271.865C354.828 266.769 355.778 261.416 355.778 256.064L293.402 256.064C293.402 281.053 273.143 301.313 248.153 301.313C223.164 301.313 202.904 281.053 202.904 256.064L140.529 256.064C140.529 261.416 141.479 266.769 143.377 271.865Z" fill="#C6492D"/>
<path d="M221.902 29.538L143.377 240.263C141.479 245.359 140.529 250.711 140.529 256.064H202.905C202.905 231.075 223.164 210.815 248.154 210.815C273.143 210.815 293.403 231.075 293.403 256.064L355.778 256.064C355.778 250.711 354.829 245.359 352.93 240.263L274.405 29.538C265.337 5.2201 230.97 5.22013 221.902 29.538Z" fill="#2D95C6"/>
</svg>
