<svg width="64" height="64" viewBox="0 0 64 64" fill="none" xmlns="http://www.w3.org/2000/svg">
<path d="M0 28C0 14.8007 0 8.20101 4.10051 4.10051C8.20101 0 14.8007 0 28 0H36C49.1993 0 55.799 0 59.8995 4.10051C64 8.20101 64 14.8007 64 28V36C64 49.1993 64 55.799 59.8995 59.8995C55.799 64 49.1993 64 36 64H28C14.8007 64 8.20101 64 4.10051 59.8995C0 55.799 0 49.1993 0 36V28Z" fill="#1B1B1B"/>
<path d="M26 21.7234L12 14.7234V41.1954L26 48.1954L38 42.1954L52 49.1954V22.7234L38 15.7234L26 21.7234ZM38 37.9594L26 43.9594V25.9594L38 19.9594V37.9594Z" fill="white"/>
</svg>
