<svg width="64" height="64" viewBox="0 0 64 64" fill="none" xmlns="http://www.w3.org/2000/svg">
<path d="M0 28C0 14.8007 0 8.20101 4.10051 4.10051C8.20101 0 14.8007 0 28 0H36C49.1993 0 55.799 0 59.8995 4.10051C64 8.20101 64 14.8007 64 28V36C64 49.1993 64 55.799 59.8995 59.8995C55.799 64 49.1993 64 36 64H28C14.8007 64 8.20101 64 4.10051 59.8995C0 55.799 0 49.1993 0 36V28Z" fill="#1B1B1B"/>
<path d="M25.2658 20.3989C25.5783 20.7111 26.0019 20.8864 26.4436 20.8864C26.8853 20.8864 27.309 20.7111 27.6215 20.3989L30.3328 17.6876V24.777C30.3328 25.2191 30.5084 25.6431 30.821 25.9556C31.1336 26.2682 31.5576 26.4438 31.9996 26.4438C32.4417 26.4438 32.8656 26.2682 33.1782 25.9556C33.4908 25.6431 33.6664 25.2191 33.6664 24.777V17.6876L36.3777 20.3989C36.5303 20.5627 36.7143 20.694 36.9188 20.7851C37.1233 20.8762 37.344 20.9252 37.5678 20.9292C37.7916 20.9331 38.0139 20.8919 38.2214 20.8081C38.429 20.7243 38.6175 20.5995 38.7758 20.4412C38.9341 20.283 39.0588 20.0944 39.1427 19.8869C39.2265 19.6793 39.2677 19.457 39.2637 19.2332C39.2598 19.0094 39.2108 18.7887 39.1197 18.5843C39.0286 18.3798 38.8972 18.1958 38.7335 18.0432L33.1775 12.4872C32.865 12.1751 32.4413 11.9998 31.9996 11.9998C31.5579 11.9998 31.1343 12.1751 30.8218 12.4872L25.2658 18.0432C24.9536 18.3557 24.7783 18.7794 24.7783 19.2211C24.7783 19.6628 24.9536 20.0864 25.2658 20.3989V20.3989Z" fill="white"/>
<path d="M20.3987 27.6217C20.6931 27.3057 20.8534 26.8878 20.8458 26.456C20.8382 26.0242 20.6632 25.6122 20.3578 25.3068C20.0525 25.0014 19.6405 24.8265 19.2086 24.8189C18.7768 24.8112 18.3589 24.9715 18.0429 25.266L12.487 30.8219C12.1748 31.1345 11.9995 31.5581 11.9995 31.9998C11.9995 32.4415 12.1748 32.8651 12.487 33.1777L18.0429 38.7336C18.3589 39.0281 18.7768 39.1883 19.2086 39.1807C19.6405 39.1731 20.0525 38.9982 20.3578 38.6928C20.6632 38.3874 20.8382 37.9754 20.8458 37.5436C20.8534 37.1118 20.6931 36.6939 20.3987 36.3779L17.6874 33.6666H24.7768C25.2189 33.6666 25.6428 33.491 25.9554 33.1784C26.268 32.8658 26.4436 32.4419 26.4436 31.9998C26.4436 31.5577 26.268 31.1338 25.9554 30.8212C25.6428 30.5086 25.2189 30.333 24.7768 30.333H17.6874L20.3987 27.6217V27.6217Z" fill="white"/>
<path d="M43.6011 25.2659C43.9136 24.9538 44.3372 24.7784 44.7789 24.7784C45.2206 24.7784 45.6443 24.9538 45.9568 25.2659L51.5128 30.8219C51.8249 31.1344 52.0002 31.558 52.0002 31.9997C52.0002 32.4414 51.8249 32.8651 51.5128 33.1776L45.9568 38.7336C45.8042 38.8973 45.6202 39.0287 45.4157 39.1198C45.2113 39.2109 44.9905 39.2599 44.7667 39.2638C44.5429 39.2678 44.3206 39.2266 44.1131 39.1428C43.9056 39.059 43.717 38.9342 43.5587 38.7759C43.4005 38.6176 43.2757 38.4291 43.1919 38.2215C43.108 38.014 43.0669 37.7917 43.0708 37.5679C43.0748 37.3441 43.1237 37.1234 43.2148 36.9189C43.3059 36.7145 43.4373 36.5304 43.6011 36.3779L46.3124 33.6665H39.2229C38.7809 33.6665 38.3569 33.4909 38.0443 33.1783C37.7318 32.8658 37.5562 32.4418 37.5562 31.9997C37.5562 31.5577 37.7318 31.1337 38.0443 30.8211C38.3569 30.5086 38.7809 30.333 39.2229 30.333H46.3124L43.6011 27.6216C43.2889 27.3091 43.1136 26.8855 43.1136 26.4438C43.1136 26.0021 43.2889 25.5784 43.6011 25.2659V25.2659Z" fill="white"/>
<path d="M30.3328 46.3121L27.6214 43.6008C27.3055 43.3064 26.8876 43.1461 26.4557 43.1537C26.0239 43.1613 25.6119 43.3363 25.3066 43.6417C25.0012 43.947 24.8262 44.359 24.8186 44.7909C24.811 45.2227 24.9713 45.6406 25.2657 45.9565L30.8217 51.5125C31.1342 51.8247 31.5578 52 31.9996 52C32.4413 52 32.8649 51.8247 33.1774 51.5125L38.7334 45.9565C38.8972 45.804 39.0285 45.6199 39.1196 45.4155C39.2107 45.211 39.2597 44.9903 39.2636 44.7665C39.2676 44.5427 39.2264 44.3204 39.1426 44.1129C39.0588 43.9053 38.934 43.7168 38.7757 43.5585C38.6174 43.4002 38.4289 43.2754 38.2214 43.1916C38.0138 43.1078 37.7915 43.0666 37.5677 43.0706C37.3439 43.0745 37.1232 43.1235 36.9187 43.2146C36.7143 43.3057 36.5303 43.437 36.3777 43.6008L33.6663 46.3121V39.2227C33.6663 38.7806 33.4907 38.3567 33.1782 38.0441C32.8656 37.7315 32.4416 37.5559 31.9996 37.5559C31.5575 37.5559 31.1335 37.7315 30.821 38.0441C30.5084 38.3567 30.3328 38.7806 30.3328 39.2227V46.3121V46.3121Z" fill="white"/>
</svg>
