<svg width="64" height="64" viewBox="0 0 64 64" fill="none" xmlns="http://www.w3.org/2000/svg">
<path d="M0 28C0 14.8007 0 8.20101 4.10051 4.10051C8.20101 0 14.8007 0 28 0H36C49.1993 0 55.799 0 59.8995 4.10051C64 8.20101 64 14.8007 64 28V36C64 49.1993 64 55.799 59.8995 59.8995C55.799 64 49.1993 64 36 64H28C14.8007 64 8.20101 64 4.10051 59.8995C0 55.799 0 49.1993 0 36V28Z" fill="#1B1B1B"/>
<path d="M27.5271 25.3333L20.1197 32.7407L23.0826 35.7037L30.49 28.2963V26.8148L31.9715 25.3333L33.453 26.8148V28.2963L40.8604 35.7037L43.8233 32.7407L36.4159 25.3333H34.9345L33.453 23.8519L34.9345 22.3704H36.4159L43.8233 14.963L40.8604 12L33.453 19.4074V20.8889L31.9715 22.3704L30.49 20.8889V19.4074L23.0826 12L20.1197 14.963L27.5271 22.3704H29.0085L30.49 23.8519L29.0085 25.3333H27.5271ZM43.8233 49.037H40.8604L37.8974 37.1852L31.9715 31.2593L26.0456 37.1852L23.0826 49.037H20.1197C19.7268 49.037 19.3499 49.1931 19.0721 49.471C18.7943 49.7488 18.6382 50.1256 18.6382 50.5185C18.6382 50.9114 18.7943 51.2883 19.0721 51.5661C19.3499 51.8439 19.7268 52 20.1197 52H43.8233C44.2163 52 44.5931 51.8439 44.8709 51.5661C45.1487 51.2883 45.3048 50.9114 45.3048 50.5185C45.3048 50.1256 45.1487 49.7488 44.8709 49.471C44.5931 49.1931 44.2163 49.037 43.8233 49.037ZM33.453 49.037H30.49V44.5867C30.49 43.7719 31.1508 43.1111 31.9656 43.1111C32.7863 43.1111 33.453 43.7778 33.453 44.5985V49.037Z" fill="white"/>
</svg>
